<?xml version="1.0" encoding="UTF-8"?>
<svg id="Ebene_1" xmlns="http://www.w3.org/2000/svg" xmlns:xlink="http://www.w3.org/1999/xlink" version="1.1" viewBox="0 0 283.2 283.46">
  <!-- Generator: Adobe Illustrator 30.0.0, SVG Export Plug-In . SVG Version: 2.1.1 Build 123)  -->
  <defs>
    <style>
      .st0 {
        fill: none;
      }

      .st1 {
        fill: #fabe32;
      }

      .st2 {
        fill: #fff;
      }

      .st3 {
        fill: #dc0033;
      }

      .st4 {
        fill: #1a1a1a;
      }

      .st5 {
        clip-path: url(#clippath);
      }
    </style>
    <clipPath id="clippath">
      <rect class="st0" width="283.2" height="283.46"/>
    </clipPath>
  </defs>
  <rect class="st4" width="283.2" height="283.46"/>
  <g class="st5">
    <path class="st2" d="M235.86,140.52h-91.3v-23.95l6.08-5.91h95.73v-28.61h-108.27c-2.76,0-8.3,2.21-10.32,4.24l-14.76,14.59c-2.04,2.03-4.43,7.38-4.43,10.34v42.39c0,9.97,4.79,14.77,14.75,14.77h91.3v22.61l-6.27,5.16H32.56v29.55h188.54c2.95,0,8.49-2.22,10.51-4.25l14.76-14.77c2.03-2.03,4.24-7.57,4.24-10.52v-40.87c0-9.97-4.79-14.77-14.75-14.77"/>
  </g>
  <polygon class="st3" points="32.57 82.05 51.52 0 78.76 0 59.81 82.05 32.57 82.05"/>
  <polygon class="st1" points="77.98 82.05 96.93 0 114.99 0 96.04 82.05 77.98 82.05"/>
</svg>